<svg width="24" height="24" viewBox="0 0 24 24" fill="none" xmlns="http://www.w3.org/2000/svg">
<mask id="mask0_22_348" style="mask-type:alpha" maskUnits="userSpaceOnUse" x="0" y="0" width="24" height="24">
<rect y="24" width="24" height="24" transform="rotate(-90 0 24)" fill="#D9D9D9"/>
</mask>
<g mask="url(#mask0_22_348)">
<path d="M20.7731 3.86106L12.5654 12.8112C12.4783 12.9062 12.3892 12.9729 12.2981 13.0113C12.2071 13.0497 12.1077 13.0689 12 13.0689C11.8923 13.0689 11.793 13.0497 11.702 13.0113C11.6109 12.9729 11.5218 12.9062 11.4347 12.8112L3.20197 3.84011C3.05837 3.68363 2.98657 3.49852 2.98657 3.28478C2.98657 3.07104 3.06671 2.87685 3.22697 2.7022C3.37441 2.54155 3.55069 2.46122 3.75582 2.46122C3.96096 2.46122 4.13724 2.54155 4.28467 2.7022L12 11.1096L19.7347 2.68126C19.8783 2.5248 20.0472 2.44656 20.2414 2.44656C20.4356 2.44656 20.6129 2.53388 20.7731 2.7085C20.9206 2.86915 20.9943 3.06125 20.9943 3.28478C20.9943 3.50831 20.9206 3.70041 20.7731 3.86106Z" fill="#F0F6FA"/>
</g>
</svg>
