<svg width="31" height="31" viewBox="0 0 31 31" fill="none" xmlns="http://www.w3.org/2000/svg">
<path d="M15.4375 30.3387L13.3 28.3316C10.6805 25.8603 8.51484 23.7285 6.80307 21.9361C5.0913 20.1437 3.73028 18.5385 2.72001 17.1203C1.70971 15.7021 1.00381 14.3988 0.6023 13.2102C0.200767 12.0216 0 10.8061 0 9.56348C0 7.05254 0.804795 4.95563 2.41439 3.27275C4.024 1.5899 6.02962 0.748474 8.43125 0.748474C9.78468 0.748474 11.073 1.05196 12.2963 1.65894C13.5196 2.26592 14.5667 3.13501 15.4375 4.2662C16.3479 3.13501 17.4035 2.26592 18.6042 1.65894C19.8049 1.05196 21.0847 0.748474 22.4438 0.748474C24.8454 0.748474 26.851 1.5899 28.4606 3.27275C30.0702 4.95563 30.875 7.05254 30.875 9.56348C30.875 10.8061 30.6742 12.0216 30.2727 13.2102C29.8712 14.3988 29.1653 15.7021 28.155 17.1203C27.1447 18.5385 25.7837 20.1437 24.0719 21.9361C22.3602 23.7285 20.1945 25.8603 17.575 28.3316L15.4375 30.3387Z" fill="#D9A5A5"/>
</svg>
