<svg width="24" height="24" viewBox="0 0 24 24" fill="none" xmlns="http://www.w3.org/2000/svg">
<mask id="mask0_25_407" style="mask-type:alpha" maskUnits="userSpaceOnUse" x="0" y="0" width="24" height="24">
<rect width="24" height="24" fill="#D9D9D9"/>
</mask>
<g mask="url(#mask0_25_407)">
<path d="M11.6461 18.8769C11.5397 18.7705 11.4855 18.6525 11.4836 18.5231C11.4817 18.3936 11.5339 18.2756 11.6403 18.1692L17.3095 12.5H5.26917C5.12687 12.5 5.00796 12.4522 4.91244 12.3567C4.81692 12.2612 4.76917 12.1423 4.76917 12C4.76917 11.8577 4.81692 11.7388 4.91244 11.6433C5.00796 11.5477 5.12687 11.5 5.26917 11.5H17.3095L11.6403 5.83076C11.5339 5.72435 11.4817 5.6064 11.4836 5.47692C11.4855 5.34743 11.5397 5.22948 11.6461 5.12306C11.7525 5.01665 11.8705 4.96344 11.9999 4.96344C12.1294 4.96344 12.2474 5.01665 12.3538 5.12306L18.6653 11.4346C18.7525 11.5179 18.8137 11.6061 18.849 11.699C18.8842 11.792 18.9019 11.8923 18.9019 12C18.9019 12.0949 18.8842 12.191 18.849 12.2884C18.8137 12.3859 18.7525 12.4782 18.6653 12.5654L12.3538 18.8769C12.2474 18.9833 12.1294 19.0365 11.9999 19.0365C11.8705 19.0365 11.7525 18.9833 11.6461 18.8769Z" fill="#847070"/>
</g>
</svg>
