<svg width="23" height="21" viewBox="0 0 23 21" fill="none" xmlns="http://www.w3.org/2000/svg">
<g clip-path="url(#clip0_22_355)">
<path d="M11.625 1.38208C9.94246 1.38378 8.28932 1.79808 6.82815 2.58425C5.36697 3.37041 4.14808 4.50137 3.29131 5.86593C2.43453 7.23049 1.96938 8.78167 1.94157 10.367C1.91377 11.9522 2.32427 13.5171 3.13272 14.9076L1.93884 19.6368L6.95765 18.5118C8.2521 19.1809 9.69176 19.5624 11.1666 19.627C12.6415 19.6915 14.1125 19.4376 15.4672 18.8845C16.8219 18.3313 18.0246 17.4937 18.9832 16.4356C19.9418 15.3775 20.631 14.1268 20.9982 12.7793C21.3653 11.4317 21.4007 10.0229 21.1017 8.66052C20.8026 7.29811 20.1769 6.01816 19.2726 4.91846C18.3682 3.81877 17.209 2.92845 15.8835 2.31554C14.5581 1.70262 13.1015 1.38334 11.625 1.38208ZM6.78194 5.52972H9.42199C9.54148 5.52972 9.65607 5.57445 9.74056 5.65406C9.82505 5.73368 9.87252 5.84166 9.87252 5.95425C9.85774 6.5204 9.95869 7.08394 10.1699 7.61416C10.2608 7.79164 10.2808 7.99407 10.2262 8.18433C10.1716 8.37459 10.046 8.53992 9.87252 8.65L8.94895 9.49906C9.35845 10.2526 9.8939 10.9392 10.5348 11.5326C11.1594 12.1463 11.885 12.6609 12.6838 13.0566L13.5848 12.1863C14.0353 11.7618 14.2426 11.7618 14.6841 11.9061C15.2468 12.1051 15.8448 12.2003 16.4456 12.1863C16.5633 12.1915 16.6748 12.2379 16.7581 12.3164C16.8414 12.3949 16.8907 12.4999 16.8961 12.6109V15.0986C16.8907 15.2095 16.8414 15.3145 16.7581 15.393C16.6748 15.4716 16.5633 15.518 16.4456 15.5231C13.7955 15.4143 11.2834 14.3791 9.39947 12.6193C7.52907 10.846 6.42992 8.47772 6.31791 5.97972C6.31898 5.86287 6.3678 5.7509 6.45422 5.66709C6.54064 5.58329 6.65802 5.53409 6.78194 5.52972Z" stroke="#847070" stroke-linecap="round" stroke-linejoin="round"/>
</g>
<defs>
<clipPath id="clip0_22_355">
<rect width="21.625" height="20.3774" fill="white" transform="translate(0.8125 0.320801)"/>
</clipPath>
</defs>
</svg>
